<?xml version="1.0" standalone="no"?>
<!DOCTYPE svg PUBLIC "-//W3C//DTD SVG 20010904//EN"
 "http://www.w3.org/TR/2001/REC-SVG-20010904/DTD/svg10.dtd">
<svg version="1.0" xmlns="http://www.w3.org/2000/svg"
 width="1280.000000pt" height="1280.000000pt" viewBox="0 0 1280.000000 1280.000000"
 preserveAspectRatio="xMidYMid meet">
<metadata>
Created by potrace 1.14, written by Peter Selinger 2001-2017
</metadata>
<g transform="translate(0.000000,1280.000000) scale(0.100000,-0.100000)"
fill="#000000" stroke="none">
<path d="M6208 12424 c-2 -1 -48 -6 -103 -9 -55 -4 -107 -8 -115 -10 -8 -1
-44 -6 -80 -10 -58 -6 -312 -47 -365 -59 -11 -2 -56 -12 -100 -21 -131 -27
-531 -148 -610 -184 -11 -5 -76 -33 -145 -62 -172 -72 -449 -210 -520 -259
-14 -10 -92 -36 -175 -60 -208 -58 -384 -115 -670 -215 -138 -49 -272 -106
-291 -124 -28 -27 -25 -68 6 -93 25 -20 31 -20 163 6 40 8 88 17 107 20 19 3
46 9 60 12 31 6 49 9 120 19 30 4 60 9 65 12 11 5 -3 -8 -125 -115 -507 -449
-937 -1065 -1193 -1712 -73 -185 -179 -519 -186 -592 -1 -4 -27 -19 -58 -34
-163 -74 -328 -222 -423 -379 -113 -187 -171 -367 -206 -645 -10 -76 -13 -421
-4 -490 4 -36 10 -92 13 -125 5 -52 16 -133 32 -225 23 -135 97 -436 129 -528
8 -23 15 -46 16 -50 0 -11 29 -98 72 -217 49 -134 112 -280 172 -399 27 -54
42 -94 37 -100 -5 -6 -52 -87 -106 -181 -54 -93 -130 -224 -168 -290 -38 -66
-81 -140 -95 -165 -14 -25 -88 -153 -165 -285 -77 -132 -149 -258 -162 -280
-12 -22 -71 -123 -130 -225 -59 -102 -116 -201 -127 -220 -11 -19 -63 -109
-116 -200 -52 -91 -122 -212 -155 -270 -33 -58 -68 -112 -78 -120 -9 -8 -32
-42 -49 -75 -42 -78 -99 -183 -145 -265 -73 -133 -144 -288 -178 -390 -37
-112 -91 -323 -103 -405 -5 -27 -9 -52 -9 -55 -1 -3 -5 -32 -9 -65 -4 -33 -10
-71 -12 -85 -12 -75 -19 -220 -19 -420 1 -271 11 -399 51 -640 2 -14 7 -45 10
-70 3 -25 8 -48 10 -51 2 -4 13 -49 23 -100 41 -199 131 -501 158 -531 15 -17
284 -18 6258 -18 6036 0 6244 1 6265 18 17 14 21 25 17 43 -4 13 -77 146 -163
294 -86 149 -175 304 -199 345 -23 41 -75 131 -115 200 -40 69 -80 139 -90
155 -9 17 -64 111 -121 210 l-104 180 -1 573 c0 314 2 572 5 573 3 0 175 1
382 2 337 2 377 4 392 19 9 9 17 22 17 28 0 16 -28 76 -59 125 -13 22 -57 96
-96 165 -40 69 -115 199 -167 290 -53 91 -105 181 -116 200 -11 19 -60 105
-109 190 -50 85 -174 301 -277 480 -103 179 -212 366 -241 415 -170 291 -600
1041 -598 1045 1 3 28 64 59 135 141 324 281 808 319 1105 3 25 8 56 10 70 3
14 7 45 9 70 3 25 8 72 12 105 8 71 8 427 0 470 -3 17 -8 57 -11 90 -17 152
-70 334 -140 480 -105 218 -252 373 -446 470 -41 21 -75 38 -77 40 -1 1 -20
67 -43 146 -104 369 -262 751 -424 1024 -25 42 -45 78 -45 80 0 7 -129 205
-194 298 -151 218 -304 398 -518 610 -111 110 -142 146 -123 143 13 -3 61 -12
106 -21 97 -20 124 -13 137 37 18 64 -14 80 -468 238 -179 62 -205 74 -310
145 -422 283 -874 489 -1360 618 -74 20 -146 39 -160 41 -14 3 -36 8 -50 11
-52 12 -168 34 -215 41 -28 3 -53 8 -56 10 -3 2 -34 6 -70 9 -35 4 -70 8 -77
10 -11 4 -52 9 -182 21 -60 6 -607 13 -612 8z"/>
</g>
</svg>
